# xmcd CD database file
#
# Track frame offsets:
#	182
#	16115
#	34980
#	53407
#	78552
#	101620
#	116895
#	135762
#	155537
#	172810
#
# Disc length: 2572 seconds
#
# Revision: 1
# Processed by: cddbd v1.5.2PL0 Copyright (c) Steve Scherf et al.
# Submitted via: CDex 1.70beta2
#
DISCID=6e0a0a0a
DTITLE=Taj Mahal - Taj
DYEAR=1986
DGENRE=
TTITLE0=taj mahal - everybody is somebody
TTITLE1=taj mahal - paradise
TTITLE2=taj mahal - do i love her
TTITLE3=taj mahal - light of the pacific
TTITLE4=taj mahal - deed i do
TTITLE5=taj mahal - soothin'
TTITLE6=taj mahal - pillow talk
TTITLE7=taj mahal - local local girl
TTITLE8=taj mahal - kauai kalypso
TTITLE9=taj mahal - french letter
EXTD=YEAR: 1986
EXTT0=
EXTT1=
EXTT2=
EXTT3=
EXTT4=
EXTT5=
EXTT6=
EXTT7=
EXTT8=
EXTT9=
PLAYORDER=
